<?xml version="1.0" standalone="no"?>
<!DOCTYPE svg PUBLIC "-//W3C//DTD SVG 20010904//EN"
 "http://www.w3.org/TR/2001/REC-SVG-20010904/DTD/svg10.dtd">
<svg version="1.0" xmlns="http://www.w3.org/2000/svg"
 width="500.000000pt" height="500.000000pt" viewBox="0 0 500.000000 500.000000"
 preserveAspectRatio="xMidYMid meet">
<metadata>
Created by potrace 1.11, written by Peter Selinger 2001-2013
</metadata>
<g transform="translate(0.000000,500.000000) scale(0.100000,-0.100000)"
fill="#000000" stroke="none">
<path d="M1211 4744 c-175 -47 -329 -201 -374 -375 -11 -43 -15 -130 -16 -358
l-1 -301 1680 0 c1598 0 1680 1 1671 18 -5 9 -162 244 -349 522 l-339 505
-1109 2 c-939 1 -1117 -1 -1163 -13z"/>
<path d="M1000 3500 c0 -3 26 -33 58 -66 153 -162 313 -332 338 -359 14 -16
63 -68 108 -115 44 -47 142 -150 216 -229 74 -79 155 -164 179 -190 24 -25 71
-75 105 -111 33 -36 126 -135 206 -220 80 -85 159 -169 175 -186 35 -36 269
-286 339 -361 l49 -53 -1077 0 c-676 0 -1076 -4 -1074 -9 2 -6 158 -242 348
-525 l345 -516 1210 1 c1021 0 1218 3 1264 15 140 37 272 147 339 281 48 95
55 147 55 378 -1 228 -4 248 -65 368 -100 200 -345 513 -621 798 -173 177
-342 352 -637 659 -113 117 -255 265 -317 329 l-112 116 -715 0 c-394 0 -716
-2 -716 -5z"/>
</g>
</svg>
